<svg xmlns="http://www.w3.org/2000/svg" viewBox="0 0 375 375" fill="currentColor">
<path d="M229.88,358c-18.33,0-36.67.01-55,0-7.02,0-8.42-1.47-10.04-8.33-2.75-11.64-5.66-23.25-8.87-34.77-2.55-9.17-9.2-14.01-18.47-14.17-9.81-.16-19.63.69-29.45,1.05-5.47.2-10.97.69-16.42.4-10.65-.56-17.75-6.07-20.01-16.47-1.95-8.99-2.54-18.27-3.89-27.4-.69-4.68-1.53-9.37-2.68-13.95-1.89-7.56-6.18-13.55-12.67-17.93-2.27-1.53-4.59-3.02-6.73-4.74-5.53-4.45-6.38-10.81-2.18-16.52 1.7-2.31 3.53-4.56 5.57-6.56 15.73-15.37 20.65-34 17.69-55.48-2.41-17.52-1.49-34.92 5.02-51.66 10.59-27.22 30.09-46.14 55.71-59.01 28.52-14.33 58.83-17.92 90.25-13.96 21.28 2.68 41.42 8.77 59.63 20.35 29.12 18.51 45.51 45.63 53.2 78.79 9.24 39.83.35 75.95-21.64 109.49-4.51 6.88-9.34 13.57-14.18 20.23-9.55 13.15-12.78 28.02-11.69 43.92 1.3 18.89 5.92 37.18 10.91 55.37 2.18 7.93-.43 11.33-8.7 11.34-18.46.01-36.92-.01-55.37 0z M198.59,74.11c-41.23.3-73.53 33.2-73.2 74.56.32 39.95 33.97 72.84 74.03 72.37 40.29-.47 72.93-33.62 72.66-73.76-.28-40.68-33.22-73.47-73.49-73.17z"/>
<path d="M112.61,103.07c-.65-.89-1.27-2.64-2.34-2.98-1.27-.4-3.03.19-4.36.82-.72.34-1.03 1.64-1.43 2.54-4.93 11.18-7.84 22.87-8.62 35.07-1.41 22.1 3.73 42.59 15.17 61.52 1.26 2.08 2.95 3.25 5.26 1.98 2.47-1.35 2.47-3.51 1.17-5.78-.31-.54-.64-1.07-.94-1.62-15.91-28.26-17.82-57.4-5.48-87.44.47-1.14.89-2.32 1.57-4.11z"/>
<path d="M301.8,149.24c-.68-6.2-1.04-12.46-2.15-18.57-1-5.5-2.81-10.85-4.29-16.26-.72-2.62-1.94-4.96-5.17-3.9-3.21 1.05-2.79 3.58-1.92 6.19 10.53 31.64 6.47 61.26-12.34 88.8-1.48 2.16-2.48 4.35.11 6.18 2.71 1.92 4.53.3 6.14-2.01 12.68-18.12 19.07-38.24 19.62-60.43z"/>
<path d="M112.41,95.6c1.39 4.22 2.44 8.34 4.18 12.14.62 1.35 3 2.79 4.44 2.66 2.43-.21 3.3-2.4 2.53-4.84-1.35-4.28-2.65-8.58-4.2-12.78-1.47-4-4.84-5.6-9-4.38-4.06 1.18-8.07 2.54-12.08 3.86-2.4.79-4.06 2.25-3.07 4.99.96 2.67 3.08 2.9 5.53 2.08 3.76-1.24 7.55-2.42 11.67-3.73z"/>
<path d="M273,215.51c-.55-4.42-1.08-8.48-1.56-12.55-.29-2.52-1.62-3.99-4.17-3.71-2.6.28-3.51 2.16-3.25 4.59.45 4.35.87 8.7 1.52 13.02.63 4.17 3.73 6.54 7.97 6.21 4.1-.33 8.18-.83 12.27-1.31 2.6-.3 4.74-1.25 4.31-4.42-.4-2.96-2.57-3.29-5.04-3.03-3.93.42-7.86.79-12.05 1.2z"/>
<path d="M263.21,69.9c-1.09.93-2.74 1.68-3.01 2.76-.32 1.3.09 3.27.96 4.28 2.42 2.81 5.23 5.28 7.89 7.88 1.8 1.76 3.71 2 5.54.14 1.72-1.74 1.47-3.62-.15-5.27-2.7-2.74-5.45-5.43-8.25-8.06-.66-.63-1.63-.97-2.98-1.73z"/>
<path d="M194.53,248.9c2.56.06 4.62-.77 4.82-3.58.2-2.82-1.65-3.85-4.29-4.01-3.36-.2-6.71-.57-10.05-.95-2.58-.3-4.59.36-4.97 3.18-.35 2.62 1.25 3.89 3.71 4.17 3.59.42 7.18.8 10.78 1.19z"/>
<path d="M134.56,218.66c-.27-1-.25-1.61-.54-1.92-3.27-3.54-6.46-7.18-10.01-10.42-.66-.61-3.32-.06-4.13.82-.8.87-1.11 3.37-.45 4.2 2.78 3.47 5.89 6.69 9.14 9.74.73.69 2.66.72 3.7.27 1.03-.46 1.65-1.9 2.29-2.69z"/>
<path d="M153.64,231.8c-.26-.45-.54-1.59-1.26-2.09-3.68-2.54-7.35-5.13-11.29-7.19-.97-.51-3.63.46-4.25 1.51-.62 1.04-.22 3.74.7 4.48 3.4 2.68 7.1 5.02 10.88 7.12 2.44 1.35 5.27-.67 5.22-3.83z"/>
<path d="M257.67,66.28c-.25-.45-.51-1.62-1.22-2.07-3.87-2.45-7.75-4.93-11.88-6.89-.95-.45-3.57.77-4.12 1.87-.54 1.08.08 3.68 1.07 4.41 3.39 2.47 7.1 4.55 10.83 6.51 2.42 1.26 5.25-.69 5.32-3.83z"/>
<path d="M280.25,88.1c-3.71-.08-5.41 3.03-3.79 5.86 1.85 3.23 3.91 6.33 5.86 9.5 1.29 2.09 2.98 3.04 5.28 1.67 2.28-1.36 2.34-3.38 1.11-5.46-1.89-3.2-3.82-6.39-5.92-9.46-.69-1.04-2-1.66-2.54-2.11z"/>
<path d="M233.07,59.93c.9-.83 2.72-1.74 2.88-2.88.19-1.37-.68-3.83-1.73-4.25-4.11-1.67-8.42-2.96-12.76-3.83-1.09-.22-3.22 1.41-3.72 2.66-.4.99.63 3.53 1.61 3.92 4.24 1.68 8.69 2.83 13.72 4.38z"/>
<path d="M172.08,245.67c1.1-1.02 2.99-1.96 3.23-3.22.24-1.29-.76-3.69-1.87-4.2-3.82-1.75-7.87-3.13-11.96-4.1-1.16-.27-3.49 1.07-3.95 2.21-.45 1.11.39 3.79 1.38 4.26 4.02 1.93 8.32 3.26 13.17 5.05z"/>
<path d="M243.85,142.57c6.33-2.3 10.04-1.72 12.83 1.87 2.41 3.09 2.45 7.68.09 10.78-2.87 3.78-6.4 4.29-13.69 1.7 0 3.39.12 6.59-.03 9.79-.27 5.64-2.68 7.81-8.28 7.73-2.35-.03-4.7-.01-7.07-.01 2.17 7.02 1.47 10.79-2.46 13.38-3.17 2.08-7.57 1.79-10.45-.69-3.43-2.95-3.81-6.7-.98-13.34-2.81 0-5.36.13-7.89-.03-5.12-.32-7.35-2.78-7.38-7.93-.02-3.22 0-6.44 0-10.28 5.55 2.88 10.24 3.27 13.93-1.55 2.44-3.19 2.19-7.66-.35-10.75-2.86-3.48-6.59-3.99-12.73-1.65 0-3.1-.24-6.16.06-9.18.39-3.98 3.01-6.26 7.1-6.2 10.24.14 20.47.39 30.7.75 4.06.14 6.44 2.89 6.57 7.16.08 2.75.01 5.48.01 8.45z"/>
<path d="M155.11,124.92c-2.3-6.33-1.72-10.04 1.87-12.83 3.09-2.41 7.68-2.45 10.78-.09 3.78 2.87 4.29 6.4 1.7 13.69 3.39 0 6.59-.12 9.79.03 5.64.27 7.81 2.68 7.73 8.28-.03 2.35-.01 4.7-.01 7.07 7.02-2.17 10.79-1.47 13.38 2.46 2.08 3.17 1.79 7.57-.69 10.45-2.95 3.43-6.7 3.81-13.34.98 0 2.81.13 5.36-.03 7.89-.32 5.12-2.78 7.35-7.93 7.38-3.22.02-6.44 0-10.28 0 2.88-5.55 3.27-10.24-1.55-13.93-3.19-2.44-7.66-2.19-10.75.35-3.48 2.86-3.99 6.59-1.65 12.73-3.1 0-6.16.24-9.18-.06-3.98-.39-6.26-3.01-6.2-7.1.14-10.24.39-20.47.75-30.7.14-4.06 2.89-6.44 7.16-6.57 2.75-.08 5.48-.01 8.45-.01z"/>
</svg>
