<svg xmlns="http://www.w3.org/2000/svg" viewBox="0 0 375 375" fill="currentColor">
<path d="M194.42,152.75c-4.93-2.14-9.18-3.54-12.98-5.71-22.91-13.09-26.92-45.21-8.09-63.68 16.61-16.3 45.85-10.28 52.88 10.88 4.88 14.69-3.58 30.75-17.85 33.87-15.07 3.3-28.86-9.82-25.12-24.05 1.66-6.32 5.55-10.85 12.13-12.51 5.85-1.48 10.89.18 15.01 4.44 4.62 4.78 4.75 12.54.49 17.45-1.44 1.67-3.1 2.73-5.18 1.26-2.14-1.52-2.05-3.39-.61-5.52 2.38-3.53 2.19-6.37-.3-8.73-2.82-2.67-7.5-2.93-10.69-.6-5.36 3.92-5.8 12.31-.9 17.19 5.69 5.68 15.05 5.8 21.01.29 8.48-7.85 8.35-21.4-.27-29.35-11.45-10.56-28.95-8.81-38.56 3.85-8.23 10.84-9.11 25.67-2.21 37.36 7 11.87 20.76 18.47 34.48 16.05 4.48-.79 8.81-2.55 13.1-4.16 2.21-.83 4.23-1.41 5.56.93 1.41 2.48.21 4.38-2.2 5.42-3.97 1.7-8 3.25-13.15 5.32 2.36 0 3.72 0 5.08 0 30.95 0 61.9-.01 92.85.01 7.4 0 9.56 2.27 10.64 9.56 4.86 32.67-4.47 61.77-22.06 88.79-3.95 6.07-8.18 11.95-12.48 17.78-9.05 12.28-11.99 26.2-10.86 41.08 1.26 16.63 5.22 32.76 9.67 48.78.23.84.47 1.68.68 2.53 1.25 5.16-1.32 8.77-6.59 8.77-34.82.05-69.64.05-104.45.01-4.07 0-5.91-1.75-6.89-5.95-2.19-9.35-4.02-18.81-6.64-28.04-4.27-15.04-9.42-18.87-24.98-18.61-8.71.15-17.41 1.28-26.12 1.8-3.34.2-6.75.24-10.06-.17-10.55-1.28-16.21-6.28-18.13-16.87-1.66-9.2-2.55-18.55-3.71-27.83-1.45-11.58-6.34-20.93-16.86-26.77-1.08-.6-2.08-1.4-3.01-2.21-4.67-4.08-5.42-9.75-1.64-14.68 2.88-3.76 6.14-7.24 9.23-10.84 9.12-10.61 13.8-22.69 12.51-36.88-.59-6.47-.83-12.97-1.22-19.46-.49-8.17 2.03-10.81 10.35-10.81 34.32-.01 68.64 0 102.96 0 1.45 0 2.9 0 5.19 0z"/>
<path d="M312.14,114.57c-.17 19.86-18.3 33.1-35.43 25.79-13.42-5.72-17.65-21.86-8.53-32.59 4.79-5.64 12.95-7.54 19.75-4.59 6.29 2.73 9.73 8.51 9.09 15.28-.9 9.42-11.08 14.88-18.77 10.09-2.04-1.27-3.29-2.91-1.99-5.26 1.17-2.11 3.11-2.34 5.15-1.16 2.98 1.72 5.51 1.31 7.45-1.58 2.04-3.03 1.37-7.1-1.56-9.41-2.84-2.23-6.04-2.88-9.49-1.58-4.14 1.56-6.34 4.76-7.03 8.96-1.72 10.41 8.38 18.83 19.39 16.23 10.78-2.55 17.2-14.68 13.97-26.4-2.45-8.89-9.87-15.69-18.74-16.65-10.16-1.09-18.74 1.84-24.55 10.84-.4.63-.77 1.29-1.09 1.96-1.1 2.31-2.87 3.22-5.17 2-2.18-1.16-2.18-3.07-1.18-5.16 3.08-6.47 7.87-11.21 14.38-14.11 19.35-8.6 40.01 1.83 43.85 22.11.52 2.34.54 4.11.7 5.74z"/>
<path d="M79.78,117.28c.01-14 9.38-26.01 22.82-29.26 14.22-3.44 29.19 3.06 35.37 15.32 1.16 2.3 2 4.62-.9 6.09-2.56 1.29-4.08-.27-5.34-2.5-6.3-11.17-19.7-15.72-31.21-10.69-13.52 5.91-17.99 23.3-8.99 35 5.74 7.46 16.49 9.03 24.09 3.54 5.79-4.18 7.41-12.08 3.69-18-3.26-5.19-10-6.55-14.63-2.94-2.94 2.28-3.81 6.31-1.87 9.38 1.94 3.08 4.54 3.56 7.7 1.75 2.07-1.19 3.99-.77 5.07 1.38 1.09 2.16.07 3.79-1.87 5.02-3.99 2.53-9.8 2.28-13.73-.67-4.39-3.29-6.44-9.67-4.71-15.14 1.92-6.08 6.28-9.46 12.4-10.57 6.75-1.22 12.39 1 16.51 6.39 4.77 6.24 5.71 13.27 2.57 20.5-3.37 7.76-9.71 11.99-17.91 13.01-16.11 2.01-29.02-10.4-29.01-27.61z"/>
<path d="M169.57,25.37c0-12.54 9.64-22.45 22.67-23.31 12.14-.81 22.93 7.88 24.33 19.59.89 7.45-3.41 15.65-10.03 19.13-6.32 3.32-13.86 2.33-19.13-2.49-4.85-4.44-6.13-11.39-3.17-17.12 2.73-5.27 8.05-7.91 13.71-6.78 8.07 1.6 11.71 10.98 6.65 17.12-1.49 1.81-3.3 2.96-5.48 1.4-2.14-1.53-1.72-3.38-.5-5.57.67-1.2.75-3.95.02-4.46-1.38-.96-3.8-1.54-5.3-.98-4.06 1.51-4.71 7.39-1.43 10.73 2.8 2.85 6.26 3.66 9.97 2.34 4.57-1.63 6.92-5.26 7.47-9.92 1.15-9.73-8.97-17.85-19.28-15.53-6.3 1.42-10.96 5.04-12.74 11.37-2.04 7.26.31 13.45 5.45 18.82 3.26 3.4 6.38 6.95 9.31 10.64 1.6 2.01 2.11 4.52-.71 6.07-2.63 1.44-3.92-.49-5.4-2.42-2.33-3.05-4.84-6.02-7.61-8.67-5.57-5.33-8.62-11.86-8.65-19.79z"/>
<path d="M141.36,39.93c16.87.03 29.5 18.29 23.38 33.8-.83 2.09-1.82 4.12-4.52 3.4-3.01-.81-3.25-3.05-2.27-5.66 2.8-7.43.66-13.83-4.56-19.23-4.73-4.9-10.71-6.3-17.21-4.28-6.5 2.02-10.46 6.61-11.79 13.29-1.61 8.05 5.57 15.83 13.53 14.78 5.13-.68 8.85-5.58 7.9-10.42-.89-4.52-6.22-6.96-9.4-4.31-2.5 2.09-2.42 5.03.45 6.31 2.69 1.19 3.92 2.89 2.56 5.52-1.38 2.64-3.78 1.86-5.9.91-4.57-2.04-6.91-7.22-5.63-12.23 1.32-5.16 6.67-9.04 12.1-8.78 8.51.41 14.8 8.79 12.86 17.13-2.35 10.1-12.46 15.61-22.31 12.17-10.51-3.67-15.96-15.12-12.32-25.88 3.42-10.1 12.86-16.83 23.23-16.82z"/>
<path d="M274.68,59.42c-.03 12.74-9.81 22.05-21.09 20.97-6.34-.6-10.9-4.06-13.55-9.85-2.45-5.36-1.87-10.49 1.74-15.15 3.49-4.51 9.85-6.34 14.76-4.4 5.14 2.03 8.09 6.73 7.58 12.07-.4 4.17-3.5 8.04-7.59 8.67-1.34.21-3.9-.83-4.13-1.75-.34-1.34.46-3.79 1.58-4.52 2.24-1.45 4.09-2.56 2.58-5.51-1.31-2.56-4.33-3.3-7.1-1.83-3.27 1.74-4.53 5.72-2.98 9.41 2.05 4.88 7.63 7.07 12.86 5.05 6.68-2.58 9.88-10.03 7.31-17.01-3.08-8.36-12.18-13.09-20.57-10.69-8.93 2.56-15.01 12.19-13.11 20.84.29 1.33 1.24 2.7 1.05 3.92-.24 1.6-1.31 3.06-2.02 4.59-1.51-.75-4.08-1.23-4.34-2.28-1.03-4.16-2.11-8.57-1.75-12.77.99-11.72 11.47-21.28 23.33-22.08 11.24-.76 21.77 6.99 24.74 18.29.48 1.76.61 3.52.7 4.14z"/>
<path d="M150.45,100.94c1.22-1.08 2.45-3.04 3.7-3.05 1.32-.01 3.12 1.58 3.86 2.94 1.04 1.91 1.64 4.23 1.74 6.41.07 1.45-.83 3.99-1.73 4.2-1.36.33-3.88-.5-4.53-1.63-1.39-2.41-1.9-5.33-3.04-8.87z"/>
<path d="M151.66,90.67c.83-3.52 1.04-6.1 2.11-8.25.57-1.16 3.04-2.51 3.91-2.11 1.26.57 2.43 2.58 2.57 4.08.18 2.01-.71 4.1-1.04 6.18-.36 2.27-1.61 4.07-3.86 3.43-1.55-.44-2.67-2.36-3.69-3.33z"/>
<path d="M156.8,127.86c2.91 2.65 5.78 5.07 8.34 7.78.44.47-.09 2.63-.82 3.25-.86.73-2.8 1.26-3.61.77-2.61-1.58-5.07-3.5-7.24-5.64-.65-.64-.51-2.63-.03-3.68.43-.93 1.83-1.41 3.36-2.48z"/>
<path d="M237.51,100.39c-.99 3.32-1.4 6-2.63 8.23-.62 1.12-3.21 2.33-4.03 1.89-1.22-.67-2.24-2.74-2.3-4.26-.07-2.03.5-4.3 1.49-6.08.75-1.35 2.61-2.95 3.91-2.89 1.26.04 2.45 2.06 3.56 3.11z"/>
<path d="M238.45,125.2c.75 1.62 2.56 3.75 2.07 4.83-1.29 2.86-3.39 5.44-5.58 7.74-.64.68-2.96.48-3.98-.16-.84-.53-1.6-2.73-1.17-3.46 1.69-2.83 3.84-5.39 5.91-7.98.32-.41 1.12-.43 2.75-.97z"/>
<path d="M237.87,87.27c0 .87.34 1.99-.07 2.57-.9 1.26-2.15 3.08-3.32 3.12-1.14.04-2.93-1.64-3.38-2.94-.72-2.05-.98-4.49-.62-6.62.25-1.46 1.87-2.7 2.88-4.03 1.32 1.03 3.03 1.83 3.84 3.17.77 1.27.6 3.12.84 4.71z"/>
<path d="M143.76,114.26c.43.26 1.41.6 2.03 1.28 1.42 1.56 3.02 3.12 3.86 4.99.58 1.3.57 3.99-.21 4.5-1.17.77-3.69.84-4.81.04-1.84-1.31-3.25-3.42-4.41-5.44-1.43-2.51.3-5.33 3.54-5.37z"/>
<path d="M245.76,122.1c-2.21-.12-4.16-2.55-3.12-4.46 1.28-2.35 2.92-4.71 4.96-6.38 2.04-1.67 4.09-.43 5.02 1.88 1.01 2.54-4.12 9.11-6.86 8.96z"/>
<path d="M199.62,67.74c-1.04 1.08-1.91 2.69-3.12 3.01-1.08.28-3.12-.49-3.71-1.44-1.15-1.85-1.92-4.11-2.17-6.27-.13-1.12.96-3.16 1.9-3.44 1.2-.37 3.44.17 4.12 1.11 1.33 1.84 1.88 4.25 2.98 7.03z"/>
</svg>
